<svg width="40" height="40" viewBox="0 0 40 40" fill="none" xmlns="http://www.w3.org/2000/svg">
  <rect width="40" height="40" rx="8" fill="white" fill-opacity="0.1"/>
  <path d="M20 10C14.4772 10 10 14.4772 10 20C10 25.5228 14.4772 30 20 30C25.5228 30 30 25.5228 30 20C30 14.4772 25.5228 10 20 10Z" fill="white"/>
  <path d="M20 15C17.2386 15 15 17.2386 15 20C15 22.7614 17.2386 25 20 25C22.7614 25 25 22.7614 25 20C25 17.2386 22.7614 15 20 15Z" fill="white" fill-opacity="0.3"/>
  <circle cx="20" cy="20" r="3" fill="white"/>
</svg>
